<?xml version="1.0" standalone="no"?>
<!DOCTYPE svg PUBLIC "-//W3C//DTD SVG 20010904//EN"
 "http://www.w3.org/TR/2001/REC-SVG-20010904/DTD/svg10.dtd">
<svg version="1.0" xmlns="http://www.w3.org/2000/svg"
 width="700.000000pt" height="700.000000pt" viewBox="0 0 700.000000 700.000000"
 preserveAspectRatio="xMidYMid meet">
<metadata>
Created by potrace 1.14, written by Peter Selinger 2001-2017
</metadata>
<g transform="translate(0.000000,700.000000) scale(0.100000,-0.100000)"
fill="#000000" stroke="none">
<path d="M5947 4740 c-200 -32 -385 -177 -486 -382 -86 -175 -96 -226 -96
-483 0 -198 3 -228 23 -300 50 -178 99 -270 195 -372 117 -123 272 -183 470
-183 141 0 260 26 372 81 183 91 325 303 377 562 15 80 16 393 0 473 -37 183
-106 320 -216 429 -119 117 -262 172 -466 180 -63 2 -141 0 -173 -5z m224
-416 c70 -21 137 -88 170 -170 20 -51 23 -82 27 -227 5 -200 -9 -274 -68 -366
-61 -94 -113 -121 -234 -121 -76 0 -86 2 -124 30 -48 34 -86 95 -114 182 -28
89 -36 317 -14 411 52 221 178 313 357 261z"/>
<path d="M193 4708 c12 -34 514 -1396 544 -1478 19 -52 44 -121 55 -153 l20
-58 85 3 85 3 88 230 c48 127 93 241 99 255 6 14 17 43 24 65 8 22 81 211 162
420 154 397 275 716 275 722 0 2 -73 2 -161 1 l-161 -3 -18 -50 c-45 -124
-202 -562 -242 -672 -23 -68 -45 -123 -48 -123 -3 0 -28 69 -57 153 -28 83
-93 275 -144 425 l-93 272 -259 0 c-203 0 -258 -3 -254 -12z"/>
<path d="M1850 3885 l0 -835 235 0 235 0 0 835 0 835 -235 0 -235 0 0 -835z"/>
<path d="M2541 4693 c6 -16 60 -163 120 -328 60 -165 114 -308 119 -317 6 -10
10 -23 10 -29 0 -6 6 -25 14 -42 8 -18 26 -66 41 -107 87 -241 268 -734 294
-800 l17 -45 87 -3 c73 -2 87 0 87 13 0 8 4 23 9 33 6 9 22 49 36 87 14 39 30
79 34 90 20 47 43 109 96 250 31 83 62 164 69 180 7 17 23 57 36 90 25 67 68
179 80 210 5 11 20 52 35 90 14 39 30 79 34 90 5 11 15 38 24 60 8 22 31 81
50 130 19 50 45 117 57 150 12 33 26 69 31 80 19 45 49 126 49 135 0 6 -64 10
-160 10 -88 0 -160 -2 -160 -4 0 -2 -16 -48 -36 -102 -20 -55 -51 -142 -69
-194 -67 -185 -114 -316 -150 -415 -20 -55 -41 -111 -45 -125 -5 -14 -9 -22
-9 -19 -1 3 -22 66 -47 140 -93 269 -244 714 -244 717 0 1 -117 2 -260 2
l-260 0 11 -27z"/>
<path d="M4190 3885 l0 -835 530 0 530 0 0 135 0 135 -295 0 -295 0 0 700 0
700 -235 0 -235 0 0 -835z"/>
<path d="M5148 2541 l-3 -291 38 0 c34 0 37 2 37 27 l0 27 29 -28 c58 -56 141
-34 183 47 31 61 31 203 -1 265 -28 55 -76 79 -126 62 -18 -6 -39 -18 -47 -27
-11 -14 -14 0 -18 93 l-5 109 -42 3 -42 3 -3 -290z m193 13 c21 -23 24 -35 24
-104 0 -69 -3 -81 -24 -104 -30 -32 -48 -33 -78 -4 -21 19 -23 31 -23 107 0
73 3 88 22 108 28 30 49 29 79 -3z"/>
<path d="M2787 2802 c-23 -25 -21 -65 3 -87 18 -17 21 -17 45 -1 33 21 34 68
3 90 -28 20 -31 20 -51 -2z"/>
<path d="M6161 2804 c-25 -18 -28 -65 -5 -88 20 -21 30 -20 54 4 22 22 25 42
10 69 -14 27 -35 32 -59 15z"/>
<path d="M3934 2800 c-32 -13 -71 -64 -78 -103 -5 -24 0 -52 14 -88 l20 -53
-31 -32 c-95 -98 -52 -260 75 -279 39 -6 55 -3 96 18 48 25 49 25 66 6 12 -13
30 -19 61 -19 23 0 43 2 43 5 0 2 -14 25 -32 50 l-32 45 27 57 c14 32 29 72
32 88 3 17 8 38 11 48 4 14 -1 17 -34 17 -36 0 -40 -2 -46 -32 -12 -63 -27
-108 -34 -108 -5 0 -27 27 -49 60 l-42 60 27 21 c46 36 62 69 62 129 -1 94
-71 145 -156 110z m70 -66 c22 -22 20 -76 -5 -108 -26 -33 -35 -33 -54 4 -19
37 -19 70 1 98 18 26 37 28 58 6z m-16 -311 c48 -67 50 -72 33 -87 -10 -9 -32
-16 -50 -16 -63 0 -102 81 -70 143 11 19 31 39 35 34 1 -1 24 -34 52 -74z"/>
<path d="M325 2768 c-13 -65 -105 -443 -121 -500 -5 -15 2 -18 39 -18 l44 0
18 75 18 76 65 -3 66 -3 16 -70 16 -70 48 -3 c42 -3 47 -1 42 15 -3 10 -26
104 -51 208 -25 105 -54 220 -63 258 l-16 67 -57 0 c-57 0 -57 0 -64 -32z m89
-172 c15 -59 26 -112 26 -117 0 -5 -23 -9 -51 -9 l-51 0 5 33 c10 66 40 208
43 205 2 -2 14 -52 28 -112z"/>
<path d="M4413 2793 c-10 -3 -13 -68 -13 -274 l0 -269 45 0 45 0 0 110 0 110
28 0 c52 0 66 -23 92 -157 l13 -63 44 0 c40 0 43 2 38 23 -2 12 -11 54 -18 92
-16 77 -41 135 -59 135 -7 0 2 15 18 33 78 84 70 193 -18 247 -27 16 -50 20
-118 19 -47 0 -91 -3 -97 -6z m180 -94 c46 -56 4 -149 -68 -149 l-35 0 0 83
c0 46 3 87 8 91 13 14 77 -3 95 -25z"/>
<path d="M1070 2736 c-30 -11 -35 -18 -38 -49 -3 -29 -7 -37 -23 -37 -16 0
-19 -7 -19 -40 0 -33 4 -40 19 -40 17 0 19 -10 23 -122 2 -82 8 -133 18 -153
20 -39 62 -59 106 -51 32 6 34 9 34 46 0 32 -3 37 -19 33 -39 -10 -51 21 -51
138 l0 109 40 0 40 0 0 40 0 40 -40 0 -40 0 0 50 c0 55 1 54 -50 36z"/>
<path d="M2585 2735 c-36 -11 -40 -15 -43 -48 -3 -29 -8 -37 -23 -37 -16 0
-19 -7 -19 -40 0 -33 4 -40 19 -40 17 0 19 -10 23 -122 4 -139 17 -177 67
-198 17 -7 45 -10 64 -6 31 6 32 8 29 44 -3 32 -8 38 -25 38 -34 -1 -47 39
-47 147 l0 97 40 0 40 0 0 40 c0 40 0 40 -39 40 l-40 0 -3 48 -3 48 -40 -11z"/>
<path d="M5950 2736 c-30 -11 -35 -18 -38 -49 -3 -29 -7 -37 -23 -37 -16 0
-19 -7 -19 -40 0 -33 4 -40 19 -40 17 0 19 -10 22 -128 3 -102 8 -133 22 -155
22 -34 62 -50 104 -42 31 5 33 9 33 45 0 32 -3 37 -19 33 -39 -10 -51 21 -51
138 l0 109 40 0 40 0 0 40 0 40 -40 0 -40 0 0 50 c0 55 1 54 -50 36z"/>
<path d="M1344 2646 c-74 -32 -116 -146 -94 -253 21 -103 89 -162 171 -148 83
14 132 88 133 200 0 84 -15 133 -52 168 -49 46 -102 57 -158 33z m106 -98 c28
-46 28 -150 0 -196 -17 -28 -25 -33 -53 -30 -48 5 -70 52 -64 140 5 83 25 118
67 118 23 0 35 -7 50 -32z"/>
<path d="M3024 2642 c-25 -12 -50 -35 -64 -58 -21 -34 -24 -52 -24 -134 -1
-130 24 -175 111 -200 64 -19 124 6 161 68 24 42 27 57 27 137 -1 81 -3 94
-28 133 -42 65 -114 86 -183 54z m109 -91 c26 -44 24 -170 -4 -205 -26 -34
-62 -34 -88 0 -17 22 -21 41 -21 101 0 94 19 133 65 133 23 0 35 -7 48 -29z"/>
<path d="M4853 2640 c-59 -30 -93 -100 -92 -189 1 -106 34 -168 106 -198 108
-45 203 48 203 200 0 158 -101 245 -217 187z m100 -78 c9 -9 22 -39 28 -65 32
-118 -56 -234 -111 -145 -37 61 -35 148 5 206 19 26 56 29 78 4z"/>
<path d="M5614 2646 c-76 -33 -118 -148 -94 -259 34 -164 208 -198 281 -55 26
50 29 174 6 228 -36 83 -117 119 -193 86z m108 -106 c11 -21 18 -58 18 -90 0
-32 -7 -69 -18 -90 -15 -30 -22 -35 -52 -35 -50 0 -72 45 -68 136 4 85 26 121
71 117 25 -2 36 -11 49 -38z"/>
<path d="M6663 2645 c-59 -25 -86 -96 -60 -158 11 -26 30 -44 66 -64 53 -29
67 -49 56 -83 -5 -16 -15 -20 -46 -20 -22 0 -48 4 -58 10 -15 8 -20 3 -29 -26
-9 -30 -8 -36 10 -45 30 -16 108 -16 146 0 39 16 62 56 62 105 0 57 -17 84
-75 122 -62 39 -74 56 -54 80 10 12 25 15 61 12 31 -3 48 -1 48 6 0 6 3 21 6
32 5 17 -1 24 -27 33 -41 14 -67 13 -106 -4z"/>
<path d="M650 2488 c0 -145 2 -167 20 -196 26 -43 63 -57 113 -42 20 6 43 20
50 30 16 27 27 25 27 -5 0 -22 4 -25 35 -25 l35 0 0 200 0 200 -45 0 -45 0 0
-145 c0 -135 -1 -145 -22 -165 -29 -27 -42 -25 -67 6 -19 24 -21 40 -21 165
l0 139 -40 0 -40 0 0 -162z"/>
<path d="M1630 2450 l0 -200 39 0 39 0 4 140 c3 129 5 141 25 162 19 18 27 20
50 12 l28 -9 3 -153 3 -152 44 0 45 0 0 133 c0 147 9 180 52 185 48 6 58 -25
58 -180 l0 -138 45 0 45 0 0 138 c0 203 -25 262 -112 262 -27 0 -46 -8 -70
-29 l-32 -28 -24 28 c-32 38 -87 40 -130 4 -17 -14 -33 -25 -36 -25 -3 0 -6
11 -6 25 0 22 -4 25 -35 25 l-35 0 0 -200z"/>
<path d="M2220 2637 c-19 -10 -24 -20 -23 -41 3 -36 7 -40 31 -27 28 15 95 14
110 -1 7 -7 12 -22 12 -34 0 -19 -7 -23 -51 -29 -39 -6 -59 -15 -90 -44 -37
-36 -39 -41 -39 -98 0 -52 3 -62 28 -85 15 -14 35 -28 45 -31 26 -10 73 3 97
25 21 20 21 20 27 -1 4 -16 13 -21 42 -21 l36 0 -3 152 c-4 169 -14 208 -63
233 -35 18 -125 19 -159 2z m138 -242 c-7 -55 -22 -75 -57 -75 -34 0 -51 17
-51 52 0 37 35 68 78 68 l35 0 -5 -45z"/>
<path d="M2770 2451 l0 -201 45 0 45 0 -2 198 -3 197 -42 3 -43 3 0 -200z"/>
<path d="M3310 2450 l0 -200 45 0 45 0 0 138 c0 125 2 140 20 160 21 22 46 28
67 14 24 -15 33 -66 33 -188 l0 -124 40 0 40 0 0 149 c0 155 -7 190 -42 229
-33 34 -101 31 -139 -7 l-29 -29 0 29 c0 27 -2 29 -40 29 l-40 0 0 -200z"/>
<path d="M6140 2450 l0 -200 40 0 40 0 0 200 0 200 -40 0 -40 0 0 -200z"/>
<path d="M6410 2643 c-70 -26 -110 -100 -110 -201 0 -126 61 -197 168 -196 63
1 76 12 67 52 -6 28 -9 30 -43 25 -90 -12 -145 123 -86 212 21 33 69 51 98 37
22 -10 24 -8 30 24 4 19 4 39 1 44 -6 11 -99 12 -125 3z"/>
</g>
</svg>
